{"title":"Bol Bachchan (2012) HDCAM XviD - Exclusive","uid":7418930,"size":729845072,"categoryP":"video","categoryS":"movies","magnet":"?xt=urn:btih:0b0c0de2166f7ee3ce60c4afa3b759595fec1c9b&amp;dn=Bol+Bachchan+%282012%29+HDCAM+XviD+-+Exclusive&amp;tr=udp%3A%2F%2Ftracker.openbittorrent.com%3A80&amp;tr=udp%3A%2F%2Fopen.demonii.com%3A1337&amp;tr=udp%3A%2F%2Ftracker.coppersurfer.tk%3A6969&amp;tr=udp%3A%2F%2Fexodus.desync.com%3A6969","seeders":1,"leechers":0,"uploader":"tykoon123","files":-1,"time":1341604945,"description":"Poster: &lt;a href=&quot;\nhttp://imgh.us/294219,xcitefun-bol-bachchan-poster.jpg&quot; rel=&quot;nofollow&quot; target=&quot;_NEW&quot;&gt;\nhttp://imgh.us/294219,xcitefun-bol-bachchan-poster.jpg&lt;/a&gt;\n\n\nInfo:\nFormat : AVI\nFormat/Info : Audio Video Interleave\nFile size : 696 MiB\nDuration : 2h 18mn\nOverall bit rate : 701 Kbps\nWriting library : Boilsoft AVI tool build 1/release\n\nVideo\nID : 0\nFormat : MPEG-4 Visual\nFormat profile : Advanced Simple@L5\nFormat settings, BVOP : 2\nFormat settings, QPel : No\nFormat settings, GMC : No warppoints\nFormat settings, Matrix : Default (H.263)\nCodec ID : XVID\nCodec ID/Hint : XviD\nDuration : 2h 18mn\nBit rate : 595 Kbps\nWidth : 592 pixels\nHeight : 272 pixels\nDisplay aspect ratio : 2.2:1\nFrame rate : 25.000 fps\nColor space : YUV\nChroma subsampling : 4:2:0\nBit depth : 8 bits\nScan type : Progressive\nCompression mode : Lossy\nBits/(Pixel*Frame) : 0.148\nStream size : 591 MiB (85%)\nWriting library : XviD 1.2.1 (UTC 2008-12-04)\n\nAudio\nID : 1\nFormat : MPEG Audio\nFormat version : Version 1\nFormat profile : Layer 3\nMode : Joint stereo\nMode extension : MS Stereo\nCodec ID : 55\nCodec ID/Hint : MP3\nDuration : 2h 18mn\nBit rate mode : Constant\nBit rate : 96.0 Kbps\nChannel(s) : 2 channels\nSampling rate : 32.0 KHz\nCompression mode : Lossy\nStream size : 95.4 MiB (14%)\nAlignment : Split accross interleaves\nInterleave, duration : 40 ms (1.00 video frame)\nInterleave, preload duration : 500 ms\nWriting library : LAME3.99r\nEncoding settings : -m j -V 4 -q 2 -lowpass 15.1 -b 96\n\n\n\n\nSCREENS: &lt;a href=&quot;\nhttp://imgh.us/bchan.jpg&quot; rel=&quot;nofollow&quot; target=&quot;_NEW&quot;&gt;\nhttp://imgh.us/bchan.jpg&lt;/a&gt;","torrent":{"xt":"urn:btih:0b0c0de2166f7ee3ce60c4afa3b759595fec1c9b","amp;dn":"Bol+Bachchan+%282012%29+HDCAM+XviD+-+Exclusive","amp;tr":["udp%3A%2F%2Ftracker.openbittorrent.com%3A80","udp%3A%2F%2Fopen.demonii.com%3A1337","udp%3A%2F%2Ftracker.coppersurfer.tk%3A6969","udp%3A%2F%2Fexodus.desync.com%3A6969"],"infoHash":"0b0c0de2166f7ee3ce60c4afa3b759595fec1c9b","infoHashBuffer":{"type":"Buffer","data":[11,12,13,226,22,111,126,227,206,96,196,175,163,183,89,89,95,236,28,155]},"announce":[],"urlList":[]}}